<?xml version="1.0" encoding="UTF-8"?><svg xmlns="http://www.w3.org/2000/svg" viewBox="0 0 250.647 29.715"><defs><style>.d{fill:#1d384a;}</style></defs><g id="a"/><g id="b"><g id="c"><g><path class="d" d="M28.995,24.276c.16,2.959,.32,4.719,2.959,4.719v.24h-9.159v-.24c2.72,0,2.88-1.76,2.72-4.719l-1.16-21.356L14.917,29.235h-.32L5.119,2.999l-1.04,19.357c-.2,3.839,.68,6.639,3.399,6.639v.24H0v-.24c2.56-.2,3.159-2.84,3.359-6.639l.92-17.597C4.439,1.64,3.079,.68,1.08,.36V.12H7.838l8.399,23.316L24.596,.12h6.159v.24c-2.72,.24-3,1.64-2.84,4.839l1.08,19.077Z"/><path class="d" d="M50.497,24.476c-1.4,2.4-3.839,5.239-8.079,5.239-5.319,0-8.559-4.679-8.559-10.638,0-6.599,4.279-11.278,9.438-11.278,4.199,0,7.398,2.959,7.159,7.999h-13.078c-.08,.6-.12,1.2-.12,1.8,0,5.679,2.24,10.158,6.719,10.158,2.76,0,4.999-1.6,6.279-3.439l.24,.16Zm-13.038-9.318h9.559c.32-4.119-.88-6.799-3.919-6.799-3.08,0-5.039,3.08-5.639,6.799Z"/><path class="d" d="M81.926,25.076c0,2.56,.12,3.919,1.76,3.919v.24h-6.759v-.24c1.64,0,1.76-1.36,1.76-3.919V14.917c0-3.04-.96-4.919-3.759-4.919-1.76,0-3.6,.84-5.119,2.24,.12,.56,.16,1.16,.16,1.8v11.038c0,2.56,.12,3.919,1.76,3.919v.24h-6.759v-.24c1.64,0,1.76-1.36,1.76-3.919V14.917c0-3.04-.96-4.919-3.719-4.919-1.76,0-3.52,.84-5,2.16v12.918c0,2.56,.12,3.919,1.76,3.919v.24h-6.759v-.24c1.64,0,1.76-1.36,1.76-3.919V13.478c0-2.56-.68-3.399-2.04-3.759v-.24l5.119-1.6h.16v3.839c1.92-2.16,4.239-3.919,6.879-3.919,2.56,0,4.279,1.44,4.879,4.08,1.919-2.24,4.399-4.08,7.079-4.08,3.12,0,5.079,2.2,5.079,6.239v11.038Z"/><path class="d" d="M102.901,24.476c-1.4,2.4-3.839,5.239-8.079,5.239-5.319,0-8.559-4.679-8.559-10.638,0-6.599,4.279-11.278,9.438-11.278,4.199,0,7.398,2.959,7.159,7.999h-13.078c-.08,.6-.12,1.2-.12,1.8,0,5.679,2.24,10.158,6.719,10.158,2.76,0,4.999-1.6,6.279-3.439l.24,.16Zm-13.038-9.318h9.559c.32-4.119-.88-6.799-3.919-6.799-3.08,0-5.039,3.08-5.639,6.799Z"/><path class="d" d="M122.812,25.076c0,2.56,.12,3.919,1.76,3.919v.24h-6.759v-.24c1.64,0,1.76-1.36,1.76-3.919V14.917c0-3.04-.96-4.959-3.759-4.959-1.76,0-3.68,.88-5.399,2.24v12.878c0,2.56,.12,3.919,1.76,3.919v.24h-6.759v-.24c1.64,0,1.76-1.36,1.76-3.919V13.478c0-2.56-.68-3.399-2.04-3.759v-.24l5.119-1.6h.16v3.919c2.12-2.2,4.64-4,7.319-4,3.12,0,5.079,2.2,5.079,6.239v11.038Z"/><path class="d" d="M139.548,25.996c-1.88,2.359-4.279,3.719-6.359,3.719-2.959,0-4.679-1.64-4.679-5.039V9.758h-2.08v-.44l.56-.24c1.96-.84,3.359-2.439,4.52-6.039h.24v5.239h7.479l-.56,1.48h-6.919v14.558c0,2.359,1.08,3.599,3.16,3.599,1.6,0,3.199-.96,4.399-2.08l.24,.16Z"/><path class="d" d="M141.17,18.836c0-6.639,4.159-11.038,9.758-11.038,5.639,0,9.638,4.16,9.638,10.878,0,6.639-4.159,11.038-9.718,11.038-5.679,0-9.678-4.159-9.678-10.878Zm15.877-.08c0-5.799-2.16-10.398-6.199-10.398s-6.159,4.359-6.159,10.398c0,5.799,2.2,10.398,6.239,10.398s6.119-4.359,6.119-10.398Z"/><path class="d" d="M202.165,24.276c.16,2.959,.32,4.719,2.959,4.719v.24h-9.159v-.24c2.72,0,2.88-1.76,2.72-4.719l-1.16-21.356-9.438,26.315h-.32l-9.478-26.236-1.04,19.357c-.2,3.839,.68,6.639,3.399,6.639v.24h-7.479v-.24c2.56-.2,3.159-2.84,3.359-6.639l.92-17.597c.16-3.119-1.2-4.079-3.2-4.399V.12h6.759l8.399,23.316L197.765,.12h6.159v.24c-2.72,.24-3,1.64-2.84,4.839l1.08,19.077Z"/><path class="d" d="M207.029,18.836c0-6.639,4.159-11.038,9.758-11.038,5.639,0,9.638,4.16,9.638,10.878,0,6.639-4.159,11.038-9.718,11.038-5.679,0-9.678-4.159-9.678-10.878Zm15.877-.08c0-5.799-2.16-10.398-6.199-10.398s-6.159,4.359-6.159,10.398c0,5.799,2.199,10.398,6.239,10.398s6.119-4.359,6.119-10.398Z"/><path class="d" d="M241.103,8.118l-.8,3.439h-.24c-.88-.6-1.919-.959-2.759-.959-1.08,0-2.12,.6-3.2,2.12v12.358c0,2.56,.12,3.919,1.76,3.919v.24h-6.759v-.24c1.64,0,1.76-1.36,1.76-3.919V13.478c0-2.56-.68-3.399-2.04-3.759v-.24l5.119-1.6h.16v4.279c1.64-2.52,3.399-4.359,5.439-4.359,.48,0,1,.08,1.56,.32Z"/><path class="d" d="M243.888,29.235v-.24c1.64,0,1.76-1.36,1.76-3.919V13.478c0-2.56-.68-3.399-2.04-3.759v-.24l5.119-1.6h.16V25.076c0,2.56,.12,3.919,1.76,3.919v.24h-6.759Zm.68-26.996c0-1.24,1-2.239,2.279-2.239,1.24,0,2.24,1,2.24,2.239s-1,2.24-2.24,2.24c-1.28,0-2.279-1-2.279-2.24Z"/></g></g></g></svg>